<svg version="1.1" id="Layer_1" xmlns="http://www.w3.org/2000/svg" xmlns:xlink="http://www.w3.org/1999/xlink" x="0px" y="0px"
	 width="200px" height="200px" viewBox="0 0 288 288" enable-background="new 0 0 288 288" xml:space="preserve">
<path fill="#373634" opacity="1.000000" stroke="none" 
	d="
M289.000000,121.000000 
	C289.000000,136.687561 289.000000,152.375122 288.620422,168.580292 
	C287.335602,172.367950 286.390900,175.627686 285.531219,178.909683 
	C277.707855,208.777374 262.832611,234.227737 239.158890,254.447983 
	C220.447968,270.429382 199.251831,281.053864 175.221756,286.199615 
	C173.047638,286.665131 171.069275,288.044830 169.000000,289.000000 
	C153.312439,289.000000 137.624878,289.000000 121.419830,288.620392 
	C117.476936,287.276245 114.066612,286.253845 110.623764,285.356201 
	C80.890907,277.603760 55.662655,262.671204 35.551701,239.158234 
	C19.558422,220.459503 8.953361,199.250748 3.797489,175.226852 
	C3.330586,173.051315 1.954086,171.070984 0.999999,169.000000 
	C1.000000,153.312439 1.000000,137.624878 1.379541,121.419724 
	C2.664347,117.632103 3.609370,114.372482 4.468675,111.090416 
	C12.288986,81.221092 27.160629,55.767803 50.838581,35.550301 
	C69.550117,19.573399 90.744270,8.944800 114.772987,3.797350 
	C116.948570,3.331295 118.928963,1.954081 121.000000,1.000000 
	C136.687561,1.000000 152.375122,1.000000 168.580261,1.379537 
	C172.367920,2.664353 175.627579,3.609387 178.909683,4.468699 
	C208.778976,12.289029 234.232269,27.160660 254.449753,50.838612 
	C270.426666,69.550156 281.055237,90.744286 286.202667,114.772995 
	C286.668701,116.948570 288.045929,118.928970 289.000000,121.000000 
M86.024330,157.188080 
	C92.926682,157.188080 99.829025,157.188080 107.553993,157.188080 
	C102.944824,149.166519 98.808716,141.968262 94.283386,134.092621 
	C89.555611,142.223801 85.319870,149.508774 80.743134,157.263565 
	C80.262444,157.693192 79.781754,158.122833 79.301064,158.552475 
	C79.469643,158.869247 79.638222,159.186020 79.806801,159.502792 
	C81.579605,158.798355 83.352402,158.093933 86.024330,157.188080 
M131.293732,129.300781 
	C140.406372,148.899826 149.484161,168.515320 158.697021,188.067139 
	C159.444000,189.652420 161.016144,191.836121 162.376495,191.967758 
	C167.269699,192.441208 172.236542,192.153641 177.963699,192.153641 
	C160.315048,154.522690 142.997559,117.597809 125.337364,79.942223 
	C122.478218,84.823990 119.761543,88.976288 117.604980,93.401550 
	C116.822937,95.006302 116.720291,97.553375 117.433456,99.175522 
	C121.780617,109.063522 126.452057,118.808960 131.293732,129.300781 
M171.550461,106.274384 
	C161.131729,100.834229 157.914627,90.847435 155.215546,80.152451 
	C152.999817,83.944801 150.894653,87.589676 150.044113,91.506966 
	C146.540894,107.641754 158.209671,123.807899 175.776489,126.962715 
	C188.702927,129.284164 195.805099,137.105743 198.834015,149.357574 
	C199.355667,151.467636 199.798599,153.597153 200.277908,155.717682 
	C202.651154,153.227386 204.161331,150.845093 205.123474,148.258911 
	C211.330200,131.575500 199.742111,112.962738 180.851425,109.007164 
	C177.941650,108.397888 175.110596,107.412605 171.550461,106.274384 
M204.506058,87.105812 
	C205.959885,84.549629 207.413727,81.993454 209.023041,79.163879 
	C200.141586,79.163879 191.703674,79.163879 182.779190,79.163879 
	C187.279541,86.934395 191.461426,94.155045 195.941498,101.890541 
	C198.997772,96.603348 201.562027,92.167351 204.506058,87.105812 
z"/>
<path fill="#000000" opacity="1.000000" stroke="none" 
	d="
M120.531342,1.000000 
	C118.928963,1.954081 116.948570,3.331295 114.772987,3.797350 
	C90.744270,8.944800 69.550117,19.573399 50.838581,35.550301 
	C27.160629,55.767803 12.288986,81.221092 4.468675,111.090416 
	C3.609370,114.372482 2.664347,117.632103 1.379541,120.951065 
	C1.000000,81.073029 1.000000,41.146065 1.000000,1.000000 
	C40.687294,1.000000 80.374985,1.000000 120.531342,1.000000 
z"/>
<path fill="#000000" opacity="1.000000" stroke="none" 
	d="
M289.000000,120.531342 
	C288.045929,118.928970 286.668701,116.948570 286.202667,114.772995 
	C281.055237,90.744286 270.426666,69.550156 254.449753,50.838612 
	C234.232269,27.160660 208.778976,12.289029 178.909683,4.468699 
	C175.627579,3.609387 172.367920,2.664353 169.048920,1.379537 
	C208.926956,1.000000 248.853928,1.000000 289.000000,1.000000 
	C289.000000,40.687294 289.000000,80.374985 289.000000,120.531342 
z"/>
<path fill="#000000" opacity="1.000000" stroke="none" 
	d="
M0.999999,169.468658 
	C1.954086,171.070984 3.330586,173.051315 3.797489,175.226852 
	C8.953361,199.250748 19.558422,220.459503 35.551701,239.158234 
	C55.662655,262.671204 80.890907,277.603760 110.623764,285.356201 
	C114.066612,286.253845 117.476936,287.276245 120.951172,288.620392 
	C81.073036,289.000000 41.146069,289.000000 1.000000,289.000000 
	C1.000000,249.312714 1.000000,209.625015 0.999999,169.468658 
z"/>
<path fill="#000000" opacity="1.000000" stroke="none" 
	d="
M169.468658,289.000000 
	C171.069275,288.044830 173.047638,286.665131 175.221756,286.199615 
	C199.251831,281.053864 220.447968,270.429382 239.158890,254.447983 
	C262.832611,234.227737 277.707855,208.777374 285.531219,178.909683 
	C286.390900,175.627686 287.335602,172.367950 288.620422,169.048950 
	C289.000000,208.926956 289.000000,248.853928 289.000000,289.000000 
	C249.312714,289.000000 209.625015,289.000000 169.468658,289.000000 
z"/>
<path fill="#F9F9F8" opacity="1.000000" stroke="none" 
	d="
M131.154526,128.951370 
	C126.452057,118.808960 121.780617,109.063522 117.433456,99.175522 
	C116.720291,97.553375 116.822937,95.006302 117.604980,93.401550 
	C119.761543,88.976288 122.478218,84.823990 125.337364,79.942223 
	C142.997559,117.597809 160.315048,154.522690 177.963699,192.153641 
	C172.236542,192.153641 167.269699,192.441208 162.376495,191.967758 
	C161.016144,191.836121 159.444000,189.652420 158.697021,188.067139 
	C149.484161,168.515320 140.406372,148.899826 131.154526,128.951370 
z"/>
<path fill="#F9F9F8" opacity="1.000000" stroke="none" 
	d="
M171.896790,106.437805 
	C175.110596,107.412605 177.941650,108.397888 180.851425,109.007164 
	C199.742111,112.962738 211.330200,131.575500 205.123474,148.258911 
	C204.161331,150.845093 202.651154,153.227386 200.277908,155.717682 
	C199.798599,153.597153 199.355667,151.467636 198.834015,149.357574 
	C195.805099,137.105743 188.702927,129.284164 175.776489,126.962715 
	C158.209671,123.807899 146.540894,107.641754 150.044113,91.506966 
	C150.894653,87.589676 152.999817,83.944801 155.215546,80.152451 
	C157.914627,90.847435 161.131729,100.834229 171.896790,106.437805 
z"/>
<path fill="#F8F7F7" opacity="1.000000" stroke="none" 
	d="
M204.316162,87.418579 
	C201.562027,92.167351 198.997772,96.603348 195.941498,101.890541 
	C191.461426,94.155045 187.279541,86.934395 182.779190,79.163879 
	C191.703674,79.163879 200.141586,79.163879 209.023041,79.163879 
	C207.413727,81.993454 205.959885,84.549629 204.316162,87.418579 
z"/>
<path fill="#F8F7F5" opacity="1.000000" stroke="none" 
	d="
M81.084122,156.793732 
	C85.319870,149.508774 89.555611,142.223801 94.283386,134.092621 
	C98.808716,141.968262 102.944824,149.166519 107.553993,157.188080 
	C99.829025,157.188080 92.926682,157.188080 85.241714,157.208557 
	C83.334106,157.083939 82.209114,156.938828 81.084122,156.793732 
z"/>
<path fill="#302F2D" opacity="1.000000" stroke="none" 
	d="
M80.913628,157.028641 
	C82.209114,156.938828 83.334106,157.083939 84.792145,157.309265 
	C83.352402,158.093933 81.579605,158.798355 79.806801,159.502792 
	C79.638222,159.186020 79.469643,158.869247 79.301064,158.552475 
	C79.781754,158.122833 80.262444,157.693192 80.913628,157.028641 
z"/>
</svg>