<svg xmlns="http://www.w3.org/2000/svg" xmlns:xlink="http://www.w3.org/1999/xlink" viewBox="0,0,256,256" width="64px" height="64px"><g fill="none" fill-rule="nonzero" stroke="none" stroke-width="1" stroke-linecap="butt" stroke-linejoin="miter" stroke-miterlimit="10" stroke-dasharray="" stroke-dashoffset="0" font-family="none" font-weight="none" font-size="none" text-anchor="none" style="mix-blend-mode: normal"><g transform="translate(2.13333,-15.46667) scale(5.33333,5.33333)"><path d="M41,5h-34l3,34l14,4l14,-4l3,-34z" fill="#0277bd"></path><path d="M24,8v31.9l11.2,-3.2l2.5,-28.7z" fill="#039be5"></path><path d="M33.1,13h-9.1v4h4.9l-0.3,4h-4.6v4h4.4l-0.3,4.5l-4.1,1.4v4.2l7.9,-2.6l0.7,-11.5v0z" fill="#ffffff"></path><path d="M24,13v4h-8.9l-0.3,-4zM19.4,21l0.2,4h4.4v-4zM19.8,27h-4l0.3,5.5l7.9,2.6v-4.2l-4.1,-1.4z" fill="#eeeeee"></path></g></g><g fill="#ffffff" fill-rule="nonzero" stroke="none" stroke-width="1" stroke-linecap="butt" stroke-linejoin="miter" stroke-miterlimit="10" stroke-dasharray="" stroke-dashoffset="0" font-family="none" font-weight="none" font-size="none" text-anchor="none" style="mix-blend-mode: normal"><g><path d="M107.585,240.555h8.43c-0.21333,4.76 -1.55333,8.36 -4.02,10.8c-2.46,2.44667 -5.93333,3.67 -10.42,3.67v0c-4.72,0 -8.33333,-1.55333 -10.84,-4.66c-2.51333,-3.1 -3.77,-7.52333 -3.77,-13.27v0v-7.02c0,-5.72667 1.29667,-10.14333 3.89,-13.25c2.6,-3.1 6.21,-4.65 10.83,-4.65v0c4.54667,0 8,1.27 10.36,3.81c2.36,2.54 3.7,6.18667 4.02,10.94v0h-8.45c-0.07333,-2.94 -0.52667,-4.97 -1.36,-6.09c-0.82667,-1.11333 -2.35,-1.67 -4.57,-1.67v0c-2.25333,0 -3.84667,0.78667 -4.78,2.36c-0.94,1.57333 -1.43667,4.16667 -1.49,7.78v0v7.87c0,4.14667 0.46333,6.99333 1.39,8.54c0.92667,1.54667 2.51667,2.32 4.77,2.32v0c2.21333,0 3.74,-0.54 4.58,-1.62c0.84,-1.08 1.31667,-3.03333 1.43,-5.86zM134.515,246.145v0c0,-0.68667 -0.33,-1.32333 -0.99,-1.91c-0.66,-0.58 -2.12667,-1.36667 -4.4,-2.36v0c-3.34,-1.35333 -5.63333,-2.75667 -6.88,-4.21c-1.25333,-1.45333 -1.88,-3.25667 -1.88,-5.41v0c0,-2.71333 0.98,-4.95333 2.94,-6.72c1.95333,-1.76667 4.54333,-2.65 7.77,-2.65v0c3.4,0 6.12333,0.87667 8.17,2.63c2.04,1.76 3.06,4.12 3.06,7.08v0h-8.1c0,-2.52 -1.05333,-3.78 -3.16,-3.78v0c-0.86,0 -1.56667,0.26667 -2.12,0.8c-0.55333,0.53333 -0.83,1.28 -0.83,2.24v0c0,0.68667 0.30667,1.29 0.92,1.81c0.61333,0.52667 2.05667,1.27667 4.33,2.25v0c3.3,1.22667 5.63333,2.58667 7,4.08c1.36667,1.5 2.05,3.44333 2.05,5.83v0c0,2.77333 -1.04,5 -3.12,6.68c-2.08667,1.68 -4.82,2.52 -8.2,2.52v0c-2.27333,0 -4.27667,-0.44333 -6.01,-1.33c-1.74,-0.88667 -3.1,-2.12333 -4.08,-3.71c-0.98667,-1.58667 -1.48,-3.29667 -1.48,-5.13v0h7.71c0.03333,1.41333 0.36,2.47333 0.98,3.18c0.62,0.70667 1.63667,1.06 3.05,1.06v0c2.18,0 3.27,-0.98333 3.27,-2.95zM161.155,246.145v0c0,-0.68667 -0.33,-1.32333 -0.99,-1.91c-0.66,-0.58 -2.12333,-1.36667 -4.39,-2.36v0c-3.34667,-1.35333 -5.64333,-2.75667 -6.89,-4.21c-1.25333,-1.45333 -1.88,-3.25667 -1.88,-5.41v0c0,-2.71333 0.98,-4.95333 2.94,-6.72c1.95333,-1.76667 4.54333,-2.65 7.77,-2.65v0c3.4,0 6.12333,0.87667 8.17,2.63c2.04,1.76 3.06,4.12 3.06,7.08v0h-8.1c0,-2.52 -1.05333,-3.78 -3.16,-3.78v0c-0.85333,0 -1.56,0.26667 -2.12,0.8c-0.55333,0.53333 -0.83,1.28 -0.83,2.24v0c0,0.68667 0.30667,1.29 0.92,1.81c0.61333,0.52667 2.05667,1.27667 4.33,2.25v0c3.3,1.22667 5.63333,2.58667 7,4.08c1.36667,1.5 2.05,3.44333 2.05,5.83v0c0,2.77333 -1.04,5 -3.12,6.68c-2.08667,1.68 -4.82,2.52 -8.2,2.52v0c-2.27333,0 -4.27667,-0.44333 -6.01,-1.33c-1.74,-0.88667 -3.1,-2.12333 -4.08,-3.71c-0.98667,-1.58667 -1.48,-3.29667 -1.48,-5.13v0h7.71c0.03333,1.41333 0.36,2.47333 0.98,3.18c0.62667,0.70667 1.64667,1.06 3.06,1.06v0c2.17333,0 3.26,-0.98333 3.26,-2.95z"></path></g></g></svg>