<svg viewBox="0 0 2000 1000" xmlns="http://www.w3.org/2000/svg"><path fill="#000336" d="M0 0h2000v1000H0z"/><ellipse cx="102.001" cy="3.998" rx="1.327" ry="1.204" fill="#fff" opacity=".383"/><ellipse cx="207.144" cy="60.95" rx="1.531" ry="1.31" fill="#fff" opacity=".3"/><ellipse cx="331.97" cy="20.243" rx="1.946" ry="1.917" fill="#fff" opacity=".115"/><ellipse cx="527.873" cy="47.586" rx="1.582" ry="1.369" fill="#fff" opacity=".432"/><ellipse cx="606.184" cy="4.793" rx="1.535" ry="1.219" fill="#fff" opacity=".601"/><ellipse cx="716.495" cy="44.188" rx="1.953" ry="1.506" fill="#fff" opacity="-.028"/><ellipse cx="862.228" cy="76.649" rx="1.376" ry="1.188" fill="#fff" opacity=".6"/><ellipse cx="1014.613" cy="17.551" rx="2.035" ry="1.678" fill="#fff" opacity=".245"/><ellipse cx="1074.382" cy="2.763" rx="2.066" ry="1.693" fill="#fff" opacity="-.099"/><ellipse cx="1235.458" cy="28.567" rx="1.603" ry="1.185" fill="#fff" opacity=".57"/><ellipse cx="1391.669" cy="18.596" rx="1.782" ry="1.746" fill="#fff" opacity=".597"/><ellipse cx="1468.867" cy="69.153" rx="1.767" ry="1.432" fill="#fff" opacity=".197"/><ellipse cx="1624.743" cy="23.248" rx="1.945" ry="1.504" fill="#fff" opacity=".217"/><ellipse cx="1848.857" cy="5.553" rx="2.123" ry="1.746" fill="#fff" opacity="-.191"/><ellipse cx="1902.42" cy="52.481" rx="2.382" ry="1.985" fill="#fff" opacity=".039"/><ellipse cx="16.95" cy="78.491" rx="1.926" ry="1.744" fill="#fff" opacity=".148"/><ellipse cx="219.655" cy="109.443" rx="2.349" ry="1.902" fill="#fff" opacity=".43"/><ellipse cx="330.691" cy="93.313" rx="1.326" ry="1.268" fill="#fff" opacity=".593"/><ellipse cx="420.538" cy="125.233" rx="2.07" ry="1.779" fill="#fff" opacity=".188"/><ellipse cx="625.691" cy="136.541" rx="1.962" ry="1.467" fill="#fff" opacity=".479"/><ellipse cx="749.987" cy="87.94" rx="2.096" ry="1.88" fill="#fff" opacity=".732"/><ellipse cx="874.575" cy="137.997" rx="1.327" ry="1.011" fill="#fff" opacity=".78"/><ellipse cx="1122.361" cy="95.941" rx="1.411" ry="1.31" fill="#fff" opacity=".612"/><ellipse cx="1325.032" cy="121.467" rx="1.706" ry="1.502" fill="#fff" opacity=".054"/><ellipse cx="1330.265" cy="103.217" rx="1.692" ry="1.556" fill="#fff" opacity=".757"/><ellipse cx="1465.624" cy="83.018" rx="1.302" ry="1.029" fill="#fff" opacity=".432"/><ellipse cx="1651.611" cy="142.2" rx="1.17" ry="1.121" fill="#fff" opacity=".768"/><ellipse cx="1858.378" cy="148.187" rx="2.024" ry="1.975" fill="#fff" opacity=".287"/><ellipse cx="1980.469" cy="80.87" rx="2.227" ry="1.873" fill="#fff" opacity=".308"/><ellipse cx="43.067" cy="191.139" rx="1.609" ry="1.353" fill="#fff" opacity=".559"/><ellipse cx="240.821" cy="186.645" rx="1.872" ry="1.658" fill="#fff" opacity=".528"/><ellipse cx="308.749" cy="211.983" rx="1.874" ry="1.718" fill="#fff" opacity=".799"/><ellipse cx="460.681" cy="195.87" rx="1.865" ry="1.383" fill="#fff" opacity=".564"/><ellipse cx="627.757" cy="161.517" rx="1.411" ry="1.361" fill="#fff" opacity=".775"/><ellipse cx="694.493" cy="225.054" rx="1.631" ry="1.54" fill="#fff" opacity=".21"/><ellipse cx="918.825" cy="178.225" rx="1.752" ry="1.577" fill="#fff" opacity="-.12"/><ellipse cx="1050.443" cy="209.115" rx="2.404" ry="1.96" fill="#fff" opacity=".638"/><ellipse cx="1160.797" cy="168.509" rx="1.784" ry="1.345" fill="#fff" opacity=".158"/><ellipse cx="1324.182" cy="218.847" rx="1.497" ry="1.244" fill="#fff" opacity=".68"/><ellipse cx="1459.393" cy="230.501" rx="1.396" ry="1.336" fill="#fff" opacity=".616"/><ellipse cx="1488.003" cy="194.959" rx="1.576" ry="1.297" fill="#fff" opacity=".779"/><ellipse cx="1657.233" cy="221.982" rx="2.132" ry="1.74" fill="#fff" opacity=".463"/><ellipse cx="1824.753" cy="161.893" rx="1.719" ry="1.256" fill="#fff" opacity=".219"/><ellipse cx="1890.787" cy="170.312" rx="1.785" ry="1.39" fill="#fff" opacity=".117"/><ellipse cx="43.08" cy="280.36" rx="1.761" ry="1.35" fill="#fff" opacity=".672"/><ellipse cx="137.241" cy="256.089" rx="1.278" ry="1.26" fill="#fff" opacity=".482"/><ellipse cx="311.846" cy="233.143" rx="2" ry="1.889" fill="#fff" opacity=".254"/><ellipse cx="434.255" cy="292.773" rx="1.797" ry="1.298" fill="#fff" opacity=".275"/><ellipse cx="604.401" cy="273.352" rx="1.243" ry="1.044" fill="#fff" opacity="-.098"/><ellipse cx="685.685" cy="277.825" rx="1.67" ry="1.201" fill="#fff" opacity=".824"/><ellipse cx="901.956" cy="287.579" rx="2.278" ry="1.859" fill="#fff" opacity=".327"/><ellipse cx="942.96" cy="247.945" rx="1.854" ry="1.401" fill="#fff" opacity=".328"/><ellipse cx="1146.354" cy="306.613" rx="1.254" ry="1.062" fill="#fff" opacity=".687"/><ellipse cx="1313.288" cy="239.276" rx="1.685" ry="1.674" fill="#fff" opacity=".078"/><ellipse cx="1420.113" cy="299.836" rx="1.173" ry="1.123" fill="#fff" opacity=".034"/><ellipse cx="1556.666" cy="297.883" rx="1.286" ry="1.08" fill="#fff" opacity=".314"/><ellipse cx="1659.789" cy="239.245" rx="1.486" ry="1.445" fill="#fff" opacity=".192"/><ellipse cx="1761.652" cy="231.244" rx="1.749" ry="1.624" fill="#fff" opacity=".53"/><ellipse cx="1880.779" cy="246.573" rx="1.988" ry="1.634" fill="#fff" opacity=".394"/><ellipse cx="19.274" cy="331.48" rx="1.565" ry="1.109" fill="#fff" opacity=".571"/><ellipse cx="216.694" cy="319.745" rx="2.102" ry="1.998" fill="#fff" opacity=".439"/><ellipse cx="384.115" cy="351.43" rx="1.927" ry="1.9" fill="#fff" opacity=".069"/><ellipse cx="528.239" cy="353.994" rx="1.784" ry="1.485" fill="#fff" opacity=".677"/><ellipse cx="587.009" cy="342.158" rx="2.275" ry="1.84" fill="#fff" opacity="-.032"/><ellipse cx="773.448" cy="339.515" rx="1.33" ry="1.299" fill="#fff" opacity=".262"/><ellipse cx="835.15" cy="346.427" rx="1.671" ry="1.616" fill="#fff" opacity=".688"/><ellipse cx="944.86" cy="372.815" rx="2.111" ry="1.982" fill="#fff" opacity=".678"/><ellipse cx="1074.843" cy="384.592" rx="1.247" ry="1.184" fill="#fff" opacity="-.128"/><ellipse cx="1321.59" cy="328.187" rx="2.014" ry="1.915" fill="#fff" opacity="-.223"/><ellipse cx="1341.134" cy="375.537" rx="1.451" ry="1.369" fill="#fff" opacity=".084"/><ellipse cx="1568.04" cy="353.635" rx="2.185" ry="1.802" fill="#fff" opacity=".325"/><ellipse cx="1635.206" cy="309.805" rx="1.784" ry="1.577" fill="#fff" opacity=".708"/><ellipse cx="1795.203" cy="319.39" rx="2.164" ry="1.878" fill="#fff" opacity="-.027"/><ellipse cx="1914.253" cy="364.507" rx="2.268" ry="1.794" fill="#fff" opacity=".069"/><ellipse cx="84.264" cy="385.963" rx="2.333" ry="1.905" fill="#fff" opacity=".366"/><ellipse cx="256.528" cy="396.962" rx="1.461" ry="1.098" fill="#fff" opacity=".272"/><ellipse cx="301.789" cy="417.741" rx="2.404" ry="1.938" fill="#fff" opacity=".015"/><ellipse cx="515.027" cy="452.111" rx="1.549" ry="1.185" fill="#fff" opacity=".553"/><ellipse cx="595.364" cy="405.403" rx="1.504" ry="1.395" fill="#fff" opacity=".613"/><ellipse cx="702.405" cy="450.311" rx="1.223" ry="1.104" fill="#fff" opacity=".192"/><ellipse cx="812.877" cy="385.02" rx="1.606" ry="1.233" fill="#fff" opacity=".824"/><ellipse cx="1025.466" cy="393.754" rx="2.326" ry="1.941" fill="#fff" opacity=".359"/><ellipse cx="1073.346" cy="439.034" rx="1.804" ry="1.53" fill="#fff" opacity="-.079"/><ellipse cx="1314.252" cy="408.769" rx="1.307" ry="1.128" fill="#fff" opacity="-.058"/><ellipse cx="1437.617" cy="427.6" rx="1.461" ry="1.203" fill="#fff" opacity=".699"/><ellipse cx="1543.918" cy="395.831" rx="1.36" ry="1.045" fill="#fff" opacity=".797"/><ellipse cx="1651.625" cy="387.736" rx="1.402" ry="1.129" fill="#fff" opacity="-.082"/><ellipse cx="1733.814" cy="393.116" rx="1.687" ry="1.261" fill="#fff" opacity=".597"/><ellipse cx="1959.08" cy="441.126" rx="1.548" ry="1.076" fill="#fff" opacity=".229"/><ellipse cx="67.955" cy="522.685" rx="1.947" ry="1.586" fill="#fff" opacity=".431"/><ellipse cx="226.45" cy="470.156" rx="1.493" ry="1.38" fill="#fff" opacity=".178"/><ellipse cx="307.54" cy="463.208" rx="1.84" ry="1.632" fill="#fff" opacity=".343"/><ellipse cx="467.834" cy="520.992" rx="1.473" ry="1.21" fill="#fff" opacity=".641"/><ellipse cx="613.803" cy="521.735" rx="1.335" ry="1.229" fill="#fff" opacity="-.15"/><ellipse cx="774.115" cy="494.68" rx="1.616" ry="1.484" fill="#fff" opacity=".76"/><ellipse cx="890.75" cy="517.426" rx="1.616" ry="1.218" fill="#fff" opacity=".254"/><ellipse cx="1017.119" cy="493.274" rx="1.485" ry="1.327" fill="#fff" opacity="-.117"/><ellipse cx="1156.81" cy="522.641" rx="1.76" ry="1.719" fill="#fff" opacity=".462"/><ellipse cx="1274.009" cy="512.637" rx="1.606" ry="1.28" fill="#fff" opacity=".278"/><ellipse cx="1436.223" cy="489.723" rx="1.314" ry="1.024" fill="#fff" opacity=".552"/><ellipse cx="1552.014" cy="469.389" rx="1.942" ry="1.917" fill="#fff" opacity=".154"/><ellipse cx="1624.346" cy="487.778" rx="2.113" ry="1.802" fill="#fff" opacity=".712"/><ellipse cx="1733.297" cy="522.503" rx="1.552" ry="1.107" fill="#fff" opacity=".578"/><ellipse cx="1947.833" cy="530.307" rx="2.399" ry="1.94" fill="#fff" opacity=".498"/><ellipse cx="107.194" cy="542.481" rx="1.687" ry="1.397" fill="#fff" opacity=".095"/><ellipse cx="187.955" cy="605.337" rx="1.862" ry="1.701" fill="#fff" opacity="-.114"/><ellipse cx="366.022" cy="548.568" rx="1.963" ry="1.605" fill="#fff" opacity=".32"/><ellipse cx="437.795" cy="604.568" rx="1.612" ry="1.507" fill="#fff" opacity="-.202"/><ellipse cx="594.902" cy="558.179" rx="1.263" ry="1.019" fill="#fff" opacity=".844"/><ellipse cx="718.424" cy="604.398" rx="1.316" ry="1.204" fill="#fff" opacity="-.018"/><ellipse cx="884.107" cy="594.506" rx="2.325" ry="1.87" fill="#fff" opacity=".128"/><ellipse cx="961.44" cy="584.122" rx="1.463" ry="1.127" fill="#fff" opacity="-.011"/><ellipse cx="1140.136" cy="590.065" rx="2.117" ry="1.688" fill="#fff" opacity=".298"/><ellipse cx="1305.915" cy="584.538" rx="1.222" ry="1.08" fill="#fff" opacity=".825"/><ellipse cx="1389.441" cy="592.245" rx="2.322" ry="1.926" fill="#fff" opacity=".42"/><ellipse cx="1484.842" cy="560.07" rx="1.794" ry="1.781" fill="#fff" opacity=".293"/><ellipse cx="1699.425" cy="608.327" rx="1.578" ry="1.561" fill="#fff" opacity=".536"/><ellipse cx="1825.529" cy="607.597" rx="1.667" ry="1.193" fill="#fff" opacity=".617"/><ellipse cx="1987.491" cy="550.278" rx="1.474" ry="1.396" fill="#fff" opacity=".803"/><ellipse cx="77.048" cy="690.053" rx="1.721" ry="1.368" fill="#fff" opacity=".723"/><ellipse cx="174.611" cy="672.433" rx="1.532" ry="1.238" fill="#fff" opacity=".608"/><ellipse cx="332.068" cy="678.869" rx="1.753" ry="1.65" fill="#fff" opacity="-.116"/><ellipse cx="433.603" cy="679.871" rx="1.059" ry="1.038" fill="#fff" opacity=".215"/><ellipse cx="628.872" cy="629.038" rx="1.702" ry="1.4" fill="#fff" opacity=".395"/><ellipse cx="761.495" cy="681.727" rx="2.158" ry="1.771" fill="#fff" opacity=".228"/><ellipse cx="878.87" cy="641.882" rx="2.054" ry="1.971" fill="#fff" opacity=".237"/><ellipse cx="1029.047" cy="638.699" rx="2.445" ry="1.958" fill="#fff" opacity=".35"/><ellipse cx="1130.658" cy="689.893" rx="1.564" ry="1.489" fill="#fff" opacity=".017"/><ellipse cx="1198.344" cy="660.202" rx="1.915" ry="1.639" fill="#fff" opacity="-.207"/><ellipse cx="1457.917" cy="622.9" rx="1.503" ry="1.388" fill="#fff" opacity=".605"/><ellipse cx="1526.173" cy="685.784" rx="1.809" ry="1.656" fill="#fff" opacity=".628"/><ellipse cx="1683.8" cy="665.623" rx="1.767" ry="1.592" fill="#fff" opacity=".528"/><ellipse cx="1810.195" cy="688.809" rx="1.473" ry="1.411" fill="#fff" opacity=".318"/><ellipse cx="1976.796" cy="640.485" rx="1.998" ry="1.607" fill="#fff" opacity="-.051"/><ellipse cx="32.65" cy="730.214" rx="2.215" ry="1.865" fill="#fff" opacity=".265"/><ellipse cx="153.472" cy="756.723" rx="1.727" ry="1.649" fill="#fff" opacity=".18"/><ellipse cx="368.225" cy="762.721" rx="1.613" ry="1.221" fill="#fff" opacity=".733"/><ellipse cx="406.812" cy="694.628" rx="1.597" ry="1.098" fill="#fff" opacity=".023"/><ellipse cx="631.821" cy="729.63" rx="2.015" ry="1.683" fill="#fff" opacity="-.165"/><ellipse cx="720.057" cy="733.856" rx="2.202" ry="1.874" fill="#fff" opacity=".772"/><ellipse cx="889.451" cy="702.814" rx="2.136" ry="1.861" fill="#fff" opacity=".509"/><ellipse cx="1000.848" cy="721.944" rx="1.518" ry="1.33" fill="#fff" opacity=".424"/><ellipse cx="1100.246" cy="739.29" rx="1.642" ry="1.467" fill="#fff" opacity="-.071"/><ellipse cx="1305.37" cy="697.977" rx="1.715" ry="1.525" fill="#fff" opacity=".349"/><ellipse cx="1362.204" cy="728.567" rx="1.681" ry="1.412" fill="#fff" opacity=".566"/><ellipse cx="1557.531" cy="726.46" rx="1.71" ry="1.223" fill="#fff" opacity=".217"/><ellipse cx="1720.378" cy="694.259" rx="1.671" ry="1.667" fill="#fff" opacity=".405"/><ellipse cx="1738.673" cy="696.075" rx="2.072" ry="1.766" fill="#fff" opacity=".496"/><ellipse cx="1907.124" cy="742.029" rx="2.204" ry="1.951" fill="#fff" opacity=".269"/><ellipse cx="65.674" cy="793.765" rx="2.165" ry="1.884" fill="#fff" opacity="-.036"/><ellipse cx="254.015" cy="791.733" rx="2.222" ry="1.733" fill="#fff" opacity=".058"/><ellipse cx="396.494" cy="813.959" rx="2.258" ry="1.848" fill="#fff" opacity=".796"/><ellipse cx="508.247" cy="832.72" rx="1.935" ry="1.607" fill="#fff" opacity=".825"/><ellipse cx="581.668" cy="805.65" rx="2.012" ry="1.889" fill="#fff" opacity=".602"/><ellipse cx="751.362" cy="786.806" rx="1.716" ry="1.423" fill="#fff" opacity=".444"/><ellipse cx="843.058" cy="794.335" rx="1.7" ry="1.659" fill="#fff" opacity="-.054"/><ellipse cx="1001.302" cy="808.713" rx="1.94" ry="1.756" fill="#fff" opacity=".01"/><ellipse cx="1149.109" cy="822.611" rx="2.072" ry="1.638" fill="#fff" opacity=".659"/><ellipse cx="1253.292" cy="840.44" rx="1.803" ry="1.497" fill="#fff" opacity=".661"/><ellipse cx="1380.519" cy="791.384" rx="2.288" ry="1.976" fill="#fff" opacity=".471"/><ellipse cx="1544.057" cy="826.414" rx="1.57" ry="1.189" fill="#fff" opacity="-.002"/><ellipse cx="1684.744" cy="803.532" rx="1.832" ry="1.334" fill="#fff" opacity=".722"/><ellipse cx="1741.905" cy="844.09" rx="1.643" ry="1.469" fill="#fff" opacity=".587"/><ellipse cx="1942.05" cy="843.901" rx="1.835" ry="1.478" fill="#fff" opacity=".061"/><ellipse cx="25.59" cy="894.052" rx="1.591" ry="1.383" fill="#fff" opacity=".629"/><ellipse cx="139.966" cy="914.101" rx="1.554" ry="1.348" fill="#fff" opacity=".309"/><ellipse cx="277.921" cy="856.319" rx="1.529" ry="1.24" fill="#fff" opacity=".374"/><ellipse cx="431.695" cy="890.044" rx="1.985" ry="1.85" fill="#fff" opacity=".644"/><ellipse cx="590.427" cy="861.428" rx="1.811" ry="1.767" fill="#fff" opacity=".284"/><ellipse cx="737.158" cy="910.181" rx="2.201" ry="1.785" fill="#fff" opacity=".638"/><ellipse cx="918.062" cy="880.744" rx="1.856" ry="1.613" fill="#fff" opacity=".759"/><ellipse cx="1026.691" cy="889.178" rx="2.308" ry="1.936" fill="#fff" opacity=".571"/><ellipse cx="1194.679" cy="861.349" rx="2.215" ry="1.848" fill="#fff" opacity=".587"/><ellipse cx="1246.966" cy="861.199" rx="1.541" ry="1.263" fill="#fff" opacity=".756"/><ellipse cx="1379.612" cy="917.653" rx="1.592" ry="1.589" fill="#fff" opacity=".539"/><ellipse cx="1542.464" cy="861.085" rx="2.072" ry="1.792" fill="#fff" opacity=".316"/><ellipse cx="1683.234" cy="885.374" rx="1.971" ry="1.668" fill="#fff" opacity=".758"/><ellipse cx="1846.024" cy="922.266" rx="1.447" ry="1.402" fill="#fff" opacity=".322"/><ellipse cx="1953.802" cy="880.586" rx="1.885" ry="1.544" fill="#fff" opacity=".762"/><ellipse cx="19.16" cy="933.744" rx="2.159" ry="1.909" fill="#fff" opacity="-.126"/><ellipse cx="182.802" cy="958.224" rx="1.453" ry="1.058" fill="#fff" opacity="-.036"/><ellipse cx="385.422" cy="945.165" rx="1.635" ry="1.306" fill="#fff" opacity=".512"/><ellipse cx="507.101" cy="929.874" rx="2.16" ry="1.915" fill="#fff" opacity=".723"/><ellipse cx="605.169" cy="969.6" rx="1.717" ry="1.441" fill="#fff" opacity=".495"/><ellipse cx="682.389" cy="943.086" rx="1.275" ry="1.242" fill="#fff" opacity=".043"/><ellipse cx="893.351" cy="961.184" rx="2.14" ry="1.77" fill="#fff" opacity=".192"/><ellipse cx="934.356" cy="935.624" rx="1.698" ry="1.352" fill="#fff" opacity=".615"/><ellipse cx="1087.793" cy="988.817" rx="1.58" ry="1.319" fill="#fff" opacity=".34"/><ellipse cx="1319.494" cy="969.198" rx="1.499" ry="1.139" fill="#fff" opacity=".003"/><ellipse cx="1389.43" cy="962.553" rx="1.526" ry="1.402" fill="#fff" opacity=".246"/><ellipse cx="1546.169" cy="956.29" rx="1.849" ry="1.478" fill="#fff" opacity=".758"/><ellipse cx="1657.661" cy="931.31" rx="1.857" ry="1.43" fill="#fff" opacity=".292"/><ellipse cx="1830.397" cy="964.215" rx="2.2" ry="1.953" fill="#fff" opacity=".22"/><ellipse cx="1936.013" cy="975.369" rx="2.121" ry="1.752" fill="#fff" opacity=".495"/></svg>